<svg viewBox="0 0 162 83" xmlns="http://www.w3.org/2000/svg">
  <style>
    path { fill: #000; }
    @media (prefers-color-scheme: dark) { path { fill: #fff; } }
  </style>
  <path fill-rule="evenodd" d="M120.5 2.15938e-06C125.778 2.15938e-06 130.025 -0.00307092 133.476 0.222658C136.977 0.451716 140.077 0.934663 143.025 2.09961C150.742 5.14898 156.851 11.258 159.9 18.9746C161.065 21.9226 161.548 25.0227 161.777 28.5244C162.003 31.9753 162 36.2219 162 41.5C162 46.7781 162.003 51.0247 161.777 54.4756C161.548 57.9773 161.065 61.0774 159.9 64.0254C156.851 71.742 150.742 77.851 143.025 80.9004C140.077 82.0653 136.977 82.5483 133.476 82.7773C130.025 83.0031 125.778 83 120.5 83H41.5C36.2219 83 31.9753 83.0031 28.5244 82.7773C25.0227 82.5483 21.9226 82.0653 18.9746 80.9004C11.258 77.851 5.14898 71.742 2.09961 64.0254C0.934661 61.0774 0.451716 57.9773 0.222658 54.4756C-0.00307089 51.0247 2.15938e-06 46.7781 2.15938e-06 41.5C2.15846e-06 36.2219 -0.00307102 31.9753 0.222658 28.5244C0.451716 25.0227 0.934661 21.9226 2.09961 18.9746C5.14898 11.258 11.258 5.14898 18.9746 2.09961C21.9226 0.93466 25.0227 0.451716 28.5244 0.222658C31.9753 -0.00307103 36.2219 2.15864e-06 41.5 2.15938e-06H120.5ZM41.5 12C36.0647 12 32.276 12.0031 29.3076 12.1973C26.3902 12.3881 24.687 12.7452 23.3848 13.2598C18.7548 15.0894 15.0894 18.7548 13.2598 23.3848C12.7452 24.687 12.3881 26.3902 12.1973 29.3076C12.0031 32.276 12 36.0647 12 41.5C12 46.9353 12.0031 50.724 12.1973 53.6924C12.3881 56.6098 12.7452 58.313 13.2598 59.6152C15.0894 64.2452 18.7548 67.9106 23.3848 69.7402C24.687 70.2548 26.3902 70.6119 29.3076 70.8027C32.276 70.9969 36.0647 71 41.5 71H120.5C125.935 71 129.724 70.9969 132.692 70.8027C135.61 70.6119 137.313 70.2548 138.615 69.7402C143.245 67.9106 146.911 64.2452 148.74 59.6152C149.255 58.313 149.612 56.6098 149.803 53.6924C149.997 50.724 150 46.9353 150 41.5C150 36.0647 149.997 32.276 149.803 29.3076C149.612 26.3902 149.255 24.687 148.74 23.3848C146.911 18.7548 143.245 15.0894 138.615 13.2598C137.313 12.7452 135.61 12.3881 132.692 12.1973C129.724 12.0031 125.935 12 120.5 12H41.5ZM134 22C137.314 22 140 24.6863 140 28C140 31.3137 137.314 34 134 34H120V57C120 60.3137 117.314 63 114 63C110.686 63 108 60.3137 108 57V34H94C90.6863 34 88 31.3137 88 28C88 24.6863 90.6863 22 94 22H134ZM43.7725 24.6436C48.5098 18.7694 58 22.1195 58 29.666V39.6895L69.7158 24.8193L69.9395 24.5469C74.7113 18.9604 84 22.2968 84 29.7705V56C84 59.3137 81.3137 62 78 62C74.6863 62 72 59.3137 72 56V41.3096L60.2842 56.1807C55.5857 62.1442 46 58.8215 46 51.2295V40.9971L31.6709 58.7666C29.5908 61.346 25.8128 61.751 23.2334 59.6709C20.654 57.5908 20.2491 53.8128 22.3291 51.2334L43.7725 24.6436Z"/>
</svg>
